<!-- BespaarWacht Icon Set -->

<!-- shield-down.svg - Main brand icon -->
<svg xmlns="http://www.w3.org/2000/svg" viewBox="0 0 24 24" fill="none" stroke="currentColor" stroke-width="2" stroke-linecap="round" stroke-linejoin="round">
  <path d="M12 22s8-4 8-10V5l-8-3-8 3v7c0 6 8 10 8 10z"/>
  <path d="M12 8v8"/>
  <path d="M9 13l3 3 3-3"/>
</svg>

<!-- savings-badge.svg - For besparing indicators -->
<svg xmlns="http://www.w3.org/2000/svg" viewBox="0 0 32 32" fill="none">
  <circle cx="16" cy="16" r="14" fill="#ECFDF5" stroke="#16A34A" stroke-width="2"/>
  <path d="M16 9v10" stroke="#16A34A" stroke-width="2.5" stroke-linecap="round"/>
  <path d="M12 15l4 4 4-4" stroke="#16A34A" stroke-width="2.5" fill="none" stroke-linecap="round" stroke-linejoin="round"/>
</svg>

<!-- monitoring-pulse.svg - For 24/7 monitoring -->
<svg xmlns="http://www.w3.org/2000/svg" viewBox="0 0 24 24" fill="none">
  <circle cx="12" cy="12" r="3" fill="#16A34A"/>
  <circle cx="12" cy="12" r="7" stroke="#16A34A" stroke-width="1.5" opacity="0.3"/>
  <circle cx="12" cy="12" r="11" stroke="#16A34A" stroke-width="1" opacity="0.15"/>
</svg>

<!-- lock-privacy.svg - For AVG/privacy -->
<svg xmlns="http://www.w3.org/2000/svg" viewBox="0 0 24 24" fill="none" stroke="currentColor" stroke-width="2" stroke-linecap="round" stroke-linejoin="round">
  <rect x="3" y="11" width="18" height="11" rx="2" ry="2"/>
  <path d="M7 11V7a5 5 0 0110 0v4"/>
  <circle cx="12" cy="16" r="1" fill="currentColor"/>
</svg>

<!-- compare-arrows.svg - For vergelijking -->
<svg xmlns="http://www.w3.org/2000/svg" viewBox="0 0 24 24" fill="none" stroke="currentColor" stroke-width="2" stroke-linecap="round" stroke-linejoin="round">
  <path d="M16 3l4 4-4 4"/>
  <path d="M20 7H4"/>
  <path d="M8 21l-4-4 4-4"/>
  <path d="M4 17h16"/>
</svg>
